<?xml version="1.0" encoding="UTF-8"?><svg id="Livello_1" xmlns="http://www.w3.org/2000/svg" viewBox="0 0 654.14 98.33"><defs><style>.cls-1{fill:#fff;}.cls-2,.cls-3,.cls-4,.cls-5{fill:#e30613;}.cls-3{opacity:.87;}.cls-4{opacity:.7;}.cls-5{opacity:.35;}</style></defs><path class="cls-1" d="m279.41,50.59h-5.24l-.58,1.34c-.1.22-.18.26-.42.26h-3.36c-.12,0-.16-.08-.16-.14s.04-.14.08-.24l5.38-11.62h3.36l5.38,11.62c.04.08.08.18.08.24s-.04.14-.16.14h-3.36c-.24,0-.32-.04-.42-.26l-.58-1.34Zm-4-2.84h2.76l-.54-1.22c-.32-.74-.78-2.28-.78-2.28h-.12s-.46,1.54-.78,2.28l-.54,1.22Z"/><path class="cls-1" d="m285.26,40.43c0-.12.12-.24.24-.24h6c2.96,0,5.06,1.76,5.06,4.44,0,1.7-.92,2.92-2.32,3.6v.04s.26.36.48.7l1.8,2.78c.1.16.14.22.14.3s-.06.14-.2.14h-3.68c-.1,0-.22-.04-.28-.14l-2.02-3.16h-1.62v3.06c0,.12-.12.24-.24.24h-3.12c-.12,0-.24-.12-.24-.24v-11.52Zm3.6,2.8v2.82h2.32c1.14,0,1.78-.62,1.78-1.42s-.64-1.4-1.78-1.4h-2.32Z"/><path class="cls-1" d="m307.33,45.25c-.18,0-.28-.1-.34-.32-.28-1.16-1.18-1.9-2.6-1.9-1.58,0-2.96,1.16-2.96,3.16s1.34,3.16,2.96,3.16c1.38,0,2.28-.66,2.6-1.76.06-.24.18-.32.4-.32h2.86c.16,0,.36.08.36.28,0,2.42-2.22,4.84-6.22,4.84-3.68,0-6.56-2.58-6.56-6.2s2.88-6.2,6.56-6.2,6.22,2.34,6.22,4.94c0,.16-.12.32-.34.32h-2.94Z"/><path class="cls-1" d="m325.19,51.95c0,.12-.12.24-.24.24h-3.12c-.12,0-.24-.12-.24-.24v-3.88h-5.64v3.88c0,.12-.12.24-.24.24h-3.12c-.12,0-.24-.12-.24-.24v-11.52c0-.12.12-.24.24-.24h3.12c.12,0,.24.12.24.24v4.6h5.64v-4.6c0-.12.12-.24.24-.24h3.12c.12,0,.24.12.24.24v11.52Z"/><path class="cls-1" d="m331.06,51.95c0,.12-.12.24-.24.24h-3.12c-.12,0-.24-.12-.24-.24v-11.52c0-.12.12-.24.24-.24h3.12c.12,0,.24.12.24.24v11.52Z"/><path class="cls-2" d="m333.58,52.19c-.12,0-.24-.12-.24-.24v-11.52c0-.12.12-.24.24-.24h9.24c.12,0,.28.16.28.28v2.48c0,.12-.16.28-.28.28h-5.88v2.1h5.36c.12,0,.28.16.28.28v2.36c0,.12-.16.28-.28.28h-5.36v3.7c0,.12-.12.24-.24.24h-3.12Z"/><path class="cls-2" d="m352.35,50.59h-5.24l-.58,1.34c-.1.22-.18.26-.42.26h-3.36c-.12,0-.16-.08-.16-.14s.04-.14.08-.24l5.38-11.62h3.36l5.38,11.62c.04.08.08.18.08.24s-.04.14-.16.14h-3.36c-.24,0-.32-.04-.42-.26l-.58-1.34Zm-4-2.84h2.76l-.54-1.22c-.32-.74-.78-2.28-.78-2.28h-.12s-.46,1.54-.78,2.28l-.54,1.22Z"/><path class="cls-2" d="m366.57,45.25c-.18,0-.28-.1-.34-.32-.28-1.16-1.18-1.9-2.6-1.9-1.58,0-2.96,1.16-2.96,3.16s1.34,3.16,2.96,3.16c1.38,0,2.28-.66,2.6-1.76.06-.24.18-.32.4-.32h2.86c.16,0,.36.08.36.28,0,2.42-2.22,4.84-6.22,4.84-3.68,0-6.56-2.58-6.56-6.2s2.88-6.2,6.56-6.2,6.22,2.34,6.22,4.94c0,.16-.12.32-.34.32h-2.94Z"/><path class="cls-2" d="m370.58,43.23c-.12,0-.28-.16-.28-.28v-2.48c0-.12.16-.28.28-.28h11.52c.12,0,.28.16.28.28v2.48c0,.12-.16.28-.28.28h-3.96v8.72c0,.12-.12.24-.24.24h-3.12c-.12,0-.24-.12-.24-.24v-8.72h-3.96Z"/><path class="cls-2" d="m386.18,48.15c.26,0,.4.12.5.34.32.7.92,1.02,2.18,1.02,1.66,0,2.26-.46,2.26-1.04,0-.32-.28-.66-1.22-.76l-2.98-.28c-2.44-.22-3.88-1.3-3.88-3.22,0-2.34,2.04-4.22,5.62-4.22s5.42,1.72,5.42,3.5c0,.26-.2.46-.46.46h-2.72c-.2,0-.32-.06-.42-.26-.2-.42-.76-.82-1.82-.82-1.3,0-2.02.46-2.02,1,0,.34.24.6,1.04.68l2.94.28c3,.28,4.1,1.66,4.1,3.42,0,2.14-1.86,4.14-5.86,4.14-3.66,0-5.78-1.62-5.78-3.6v-.16c0-.26.22-.48.48-.48h2.62Z"/><polygon class="cls-5" points="411.07 60.3 396.28 60.3 388.88 73.1 396.28 85.91 411.07 85.91 418.46 73.1 411.07 60.3"/><polygon class="cls-5" points="440.46 44.09 425.67 44.09 418.28 56.9 425.67 69.7 440.46 69.7 447.85 56.9 440.46 44.09"/><polygon class="cls-5" points="470.03 60.3 455.25 60.3 447.85 73.1 455.25 85.91 470.03 85.91 477.43 73.1 470.03 60.3"/><polygon class="cls-4" points="499.42 44.09 484.64 44.09 477.24 56.9 484.64 69.7 499.42 69.7 506.82 56.9 499.42 44.09"/><polygon class="cls-4" points="470.03 26.04 455.25 26.04 447.85 38.85 455.25 51.65 470.03 51.65 477.43 38.85 470.03 26.04"/><polygon class="cls-4" points="499.42 9.83 484.64 9.83 477.24 22.64 484.64 35.45 499.42 35.45 506.82 22.64 499.42 9.83"/><polygon class="cls-3" points="529 26.04 514.21 26.04 506.82 38.85 514.21 51.65 529 51.65 536.4 38.85 529 26.04"/><polygon class="cls-3" points="558.39 9.83 543.6 9.83 536.21 22.64 543.6 35.45 558.39 35.45 565.79 22.64 558.39 9.83"/><polygon class="cls-3" points="528.81 56.52 514.03 56.52 506.63 69.32 514.03 82.13 528.81 82.13 536.21 69.32 528.81 56.52"/><polygon class="cls-3" points="558.39 72.72 543.6 72.72 536.21 85.53 543.6 98.33 558.39 98.33 565.79 85.53 558.39 72.72"/><polygon class="cls-2" points="587.78 56.52 572.99 56.52 565.6 69.32 572.99 82.13 587.78 82.13 595.18 69.32 587.78 56.52"/><polygon class="cls-3" points="558.39 38.46 543.6 38.46 536.21 51.27 543.6 64.08 558.39 64.08 565.79 51.27 558.39 38.46"/><polygon class="cls-2" points="587.78 22.26 572.99 22.26 565.6 35.06 572.99 47.87 587.78 47.87 595.18 35.06 587.78 22.26"/><polygon class="cls-2" points="617.36 38.46 602.57 38.46 595.18 51.27 602.57 64.08 617.36 64.08 624.75 51.27 617.36 38.46"/><polygon class="cls-2" points="646.75 22.26 631.96 22.26 624.57 35.06 631.96 47.87 646.75 47.87 654.14 35.06 646.75 22.26"/><polygon class="cls-5" points="198.9 50.46 184.11 50.46 176.71 63.27 184.11 76.08 198.9 76.08 206.29 63.27 198.9 50.46"/><polygon class="cls-5" points="228.29 34.26 213.5 34.26 206.1 47.07 213.5 59.87 228.29 59.87 235.68 47.07 228.29 34.26"/><polygon class="cls-5" points="257.86 20.93 243.08 20.93 235.68 33.74 243.08 46.54 257.86 46.54 265.26 33.74 257.86 20.93"/><polygon class="cls-4" points="154.72 34.26 169.51 34.26 176.9 47.07 169.51 59.87 154.72 59.87 147.32 47.07 154.72 34.26"/><polygon class="cls-4" points="184.11 16.21 198.9 16.21 206.29 29.01 198.9 41.82 184.11 41.82 176.71 29.01 184.11 16.21"/><polygon class="cls-4" points="154.72 0 169.51 0 176.9 12.81 169.51 25.61 154.72 25.61 147.32 12.81 154.72 0"/><polygon class="cls-3" points="125.14 16.21 139.93 16.21 147.32 29.01 139.93 41.82 125.14 41.82 117.75 29.01 125.14 16.21"/><polygon class="cls-3" points="95.75 0 110.54 0 117.93 12.81 110.54 25.61 95.75 25.61 88.36 12.81 95.75 0"/><polygon class="cls-3" points="125.33 46.68 140.12 46.68 147.51 59.49 140.12 72.3 125.33 72.3 117.93 59.49 125.33 46.68"/><polygon class="cls-3" points="95.75 62.89 110.54 62.89 117.93 75.69 110.54 88.5 95.75 88.5 88.36 75.69 95.75 62.89"/><polygon class="cls-2" points="66.36 46.68 81.15 46.68 88.54 59.49 81.15 72.3 66.36 72.3 58.97 59.49 66.36 46.68"/><polygon class="cls-3" points="95.75 28.63 110.54 28.63 117.93 41.44 110.54 54.24 95.75 54.24 88.36 41.44 95.75 28.63"/><polygon class="cls-2" points="66.36 12.42 81.15 12.42 88.54 25.23 81.15 38.04 66.36 38.04 58.97 25.23 66.36 12.42"/><polygon class="cls-2" points="36.78 28.63 51.57 28.63 58.97 41.44 51.57 54.24 36.78 54.24 29.39 41.44 36.78 28.63"/><polygon class="cls-2" points="7.39 12.42 22.18 12.42 29.58 25.23 22.18 38.04 7.39 38.04 0 25.23 7.39 12.42"/></svg>