<?xml version="1.0" encoding="UTF-8"?><svg id="Livello_1" xmlns="http://www.w3.org/2000/svg" viewBox="0 0 458.95 263.22"><defs><style>.cls-1{fill:#b51f1f;}</style></defs><path class="cls-1" d="m101.87,229.71C63.83,206.8,27.73,169.47,0,138.27,56.39,60.51,157.17-12.2,259.28,1.72c54.55,3.26,218.11,95.31,197.97,149.51-20.92,56.28-238.58,167.9-355.38,78.47ZM207.32,46.09c-2.97-.56-9.4,1.64-11.5,3.98-16.89,6.13-33.84,20.55-42.07,36.88-.44.09-.8.17-1.35.28-15.25,27.22-17.18,59.58-5.6,88.33,8.43,14.19,19.52,29.12,33.27,39.65,4.02-.19,7.19,4.8,11.51,5.95.08.37.16.74.26,1.2.94.05,1.84.09,2.83.14.77,2.19,3.83.99,4.5,3.05,39.84,14.12,94.31.61,114.25-38.29,4.05-4.29,12.54-18.67,11.13-24.77,9.52-24.2,2.44-58.74-12.89-79.04-18.22-32.51-68.48-52.4-104.33-37.35Z"/><path class="cls-1" d="m245.2,199.81c-25.3,4.23-53.12-.95-66.83-25.11,49.45,10.71,96.83-27.74,108.69-73.03,28.7,34.12-2.43,87.58-41.86,98.14Z"/></svg>