<?xml version="1.0" encoding="UTF-8"?><svg id="Livello_1" xmlns="http://www.w3.org/2000/svg" viewBox="0 0 1551.25 230.81"><defs><style>.cls-1{opacity:.63;}.cls-1,.cls-2{fill:none;}.cls-2{opacity:.62;}.cls-3{fill:#c1272d;}</style></defs><g class="cls-1"><polygon class="cls-3" points="67.81 5.88 22.6 5.88 0 45.03 22.6 84.18 67.81 84.18 90.41 45.03 67.81 5.88"/></g><g class="cls-2"><polygon class="cls-3" points="153.22 52.45 108.01 52.45 85.41 91.6 108.01 130.75 153.22 130.75 175.82 91.6 153.22 52.45"/></g><polygon class="cls-3" points="67.81 101.48 22.6 101.48 0 140.63 22.6 179.78 67.81 179.78 90.41 140.63 67.81 101.48"/><polygon class="cls-3" points="153.22 148.06 108.01 148.06 85.41 187.21 108.01 226.35 153.22 226.35 175.82 187.21 153.22 148.06"/><polygon class="cls-3" points="237.66 5.88 192.46 5.88 169.85 45.03 192.46 84.18 237.66 84.18 260.27 45.03 237.66 5.88"/><g class="cls-2"><polygon class="cls-3" points="323.07 52.45 277.86 52.45 255.26 91.6 277.86 130.75 323.07 130.75 345.67 91.6 323.07 52.45"/></g><g class="cls-2"><polygon class="cls-3" points="237.66 101.48 192.46 101.48 169.85 140.63 192.46 179.78 237.66 179.78 260.27 140.63 237.66 101.48"/></g><g class="cls-2"><polygon class="cls-3" points="323.07 148.06 277.86 148.06 255.26 187.21 277.86 226.35 323.07 226.35 345.67 187.21 323.07 148.06"/></g><polygon class="cls-3" points="407.52 0 362.31 0 339.71 39.15 362.31 78.3 407.52 78.3 430.12 39.15 407.52 0"/><g class="cls-1"><polygon class="cls-3" points="492.92 46.58 447.72 46.58 425.11 85.73 447.72 124.88 492.92 124.88 515.53 85.73 492.92 46.58"/></g><polygon class="cls-3" points="407.52 95.6 362.31 95.6 339.71 134.75 362.31 173.9 407.52 173.9 430.12 134.75 407.52 95.6"/><polygon class="cls-3" points="492.92 142.18 447.72 142.18 425.11 181.33 447.72 220.48 492.92 220.48 515.53 181.33 492.92 142.18"/><polygon class="cls-3" points="577.37 0 532.16 0 509.56 39.15 532.16 78.3 577.37 78.3 599.97 39.15 577.37 0"/><g class="cls-1"><polygon class="cls-3" points="662.78 46.58 617.57 46.58 594.97 85.73 617.57 124.88 662.78 124.88 685.38 85.73 662.78 46.58"/></g><g class="cls-1"><polygon class="cls-3" points="577.37 95.6 532.16 95.6 509.56 134.75 532.16 173.9 577.37 173.9 599.97 134.75 577.37 95.6"/></g><polygon class="cls-3" points="662.78 142.18 617.57 142.18 594.97 181.33 617.57 220.48 662.78 220.48 685.38 181.33 662.78 142.18"/><g class="cls-1"><polygon class="cls-3" points="746.14 0 700.93 0 678.33 39.15 700.93 78.3 746.14 78.3 768.74 39.15 746.14 0"/></g><polygon class="cls-3" points="831.54 46.58 786.34 46.58 763.73 85.73 786.34 124.88 831.54 124.88 854.15 85.73 831.54 46.58"/><polygon class="cls-3" points="746.14 95.6 700.93 95.6 678.33 134.75 700.93 173.9 746.14 173.9 768.74 134.75 746.14 95.6"/><g class="cls-1"><polygon class="cls-3" points="831.54 142.18 786.34 142.18 763.73 181.33 786.34 220.48 831.54 220.48 854.15 181.33 831.54 142.18"/></g><polygon class="cls-3" points="915.99 0 870.78 0 848.18 39.15 870.78 78.3 915.99 78.3 938.59 39.15 915.99 0"/><polygon class="cls-3" points="1001.4 46.58 956.19 46.58 933.59 85.73 956.19 124.88 1001.4 124.88 1024 85.73 1001.4 46.58"/><g class="cls-1"><polygon class="cls-3" points="915.99 95.6 870.78 95.6 848.18 134.75 870.78 173.9 915.99 173.9 938.59 134.75 915.99 95.6"/></g><g class="cls-1"><polygon class="cls-3" points="1001.4 142.18 956.19 142.18 933.59 181.33 956.19 220.48 1001.4 220.48 1024 181.33 1001.4 142.18"/></g><g class="cls-1"><polygon class="cls-3" points="1103.53 10.33 1058.32 10.33 1035.72 49.48 1058.32 88.63 1103.53 88.63 1126.13 49.48 1103.53 10.33"/></g><g class="cls-2"><polygon class="cls-3" points="1188.94 56.91 1143.73 56.91 1121.13 96.06 1143.73 135.21 1188.94 135.21 1211.54 96.06 1188.94 56.91"/></g><polygon class="cls-3" points="1103.53 105.93 1058.32 105.93 1035.72 145.08 1058.32 184.23 1103.53 184.23 1126.13 145.08 1103.53 105.93"/><polygon class="cls-3" points="1188.94 152.51 1143.73 152.51 1121.13 191.66 1143.73 230.81 1188.94 230.81 1211.54 191.66 1188.94 152.51"/><polygon class="cls-3" points="1273.38 10.33 1228.18 10.33 1205.57 49.48 1228.18 88.63 1273.38 88.63 1295.99 49.48 1273.38 10.33"/><g class="cls-2"><polygon class="cls-3" points="1358.79 56.91 1313.58 56.91 1290.98 96.06 1313.58 135.21 1358.79 135.21 1381.39 96.06 1358.79 56.91"/></g><g class="cls-2"><polygon class="cls-3" points="1273.38 105.93 1228.18 105.93 1205.57 145.08 1228.18 184.23 1273.38 184.23 1295.99 145.08 1273.38 105.93"/></g><g class="cls-2"><polygon class="cls-3" points="1358.79 152.51 1313.58 152.51 1290.98 191.66 1313.58 230.81 1358.79 230.81 1381.39 191.66 1358.79 152.51"/></g><polygon class="cls-3" points="1443.24 4.45 1398.03 4.45 1375.43 43.6 1398.03 82.75 1443.24 82.75 1465.84 43.6 1443.24 4.45"/><g class="cls-1"><polygon class="cls-3" points="1528.64 51.03 1483.44 51.03 1460.83 90.18 1483.44 129.33 1528.64 129.33 1551.25 90.18 1528.64 51.03"/></g><polygon class="cls-3" points="1443.24 100.06 1398.03 100.06 1375.43 139.2 1398.03 178.35 1443.24 178.35 1465.84 139.2 1443.24 100.06"/><polygon class="cls-3" points="1528.64 146.63 1483.44 146.63 1460.83 185.78 1483.44 224.93 1528.64 224.93 1551.25 185.78 1528.64 146.63"/></svg>