<?xml version="1.0" encoding="UTF-8"?><svg id="Livello_1" xmlns="http://www.w3.org/2000/svg" viewBox="0 0 363 384"><defs><style>.cls-1{fill:#b20000;}</style></defs><path class="cls-1" d="m98.25,384h-5.25c0-.13.02-.36,0-.36-2.59-.53-4.43-2.15-6.24-3.97-27.55-27.6-55.13-55.16-82.7-82.74-.62-.62-1.26-1.22-1.85-1.86-1.61-1.75-1.43-4.15-2.2-6.21,1.07-2.82,1.41-5.93,3.87-8.16,2.68-2.43,5.16-5.09,7.71-7.66,1.13-1.14,2.25-2.3,3.38-3.44-1.04-1.35-1.26-2.99-1.61-4.59-.17-.79-.48-1.55-.78-2.3-1.54-3.78-2.73-7.66-3.57-11.64-.85-4.04-1.87-8.04-2.39-12.17-.24-1.89-.11-3.95-.74-5.66-.64-1.71-.44-3.33-.63-4.98-.2-1.78-.65-3.54-.71-5.32-.11-3.62-.11-7.25-.01-10.87.1-3.65-.35-7.3.64-10.96.61-2.28-.34-4.87.84-7.16-.49-3.92,1.08-7.58,1.64-11.36.22-1.49.24-3.11.75-4.53,1.15-3.18,1.72-6.51,2.82-9.7,2.49-7.21,4.82-14.49,8.29-21.31,2.52-4.96,4.83-10.05,7.73-14.78,3.21-5.23,6.81-10.26,10.59-15.11,3.45-4.42,7.25-8.58,11.12-12.64,2.88-3.02,6.1-5.71,9.2-8.51,1.71-1.55,3.31-3.36,5.3-4.42,2.07-1.1,3.42-2.94,5.35-4.19,2.57-1.65,5.06-3.5,7.65-5.15,4.23-2.7,8.54-5.27,12.94-7.68,2.83-1.55,5.85-2.77,8.82-4.04,3.08-1.32,6.14-2.74,9.33-3.71,4.33-1.32,8.5-3.07,12.97-4.06,4.11-.91,8.22-1.87,12.32-2.83,2.05-.48,4.22-.13,6.03-.8,1.85-.69,3.63-.23,5.35-.66,1.77-.44,3.49-.76,5.33-.73,4.75.08,9.5-.05,14.25.05,4.78.11,9.56-.42,14.33.66,2.81.63,5.85.24,8.65.9,3.43.81,6.9,1.42,10.33,2.19,2.38.54,4.72,1.26,7.04,2,2.43.77,4.76,2.02,7.24,2.37,2.64.37,4.68,2.1,7.27,2.48.74.11,1.06.94,1.12-.46.3-6.77-.77-13.59.72-20.31.33-1.5-.25-3,.62-4.63.71-1.32.46-3.23.75-4.89.6-3.37,1.35-6.69,2.43-9.9,1.1-3.28,1.73-6.73,3.6-9.76,1.39-2.25,4.04-4.12,6.47-4.17,1.12-.02,2.26-.1,3.37.02,1.04.12,2.03.57,3.07.7,4.66.61,9.05-.82,13.2-2.51,5.56-2.25,10.96-4.92,16.44-7.37,4.47-2,10.4-3.95,14.69-4.38.22-.02.4-.47.6-.72,3.5,0,7,0,10.5,0,.33.25.68.75.97.71,1.99-.24,3.81.55,5.59,1.07,7.57,2.18,14.57,5.83,21.78,8.95,2.01.87,3.91,2.13,5.99,2.71,2.84.79,5.66,1.92,8.73,1.58,2.64-.3,5.29-.65,7.94-.72,3.34-.1,7.38,2.65,8.2,5.83,1.25,4.86,3.55,9.44,3.8,14.55,2.11,4.6,1.56,9.76,3,14.5-.54,4.81.8,9.53.75,14.31-.04,3.91-1.26,7.74-.75,11.69-.98,1.93-.15,4.26-.91,5.99-.75,1.71-.18,3.35-.77,4.93-.56,1.52-.97,3.12-1.3,4.71-.96,4.56-2.36,9.04-4.14,13.28-2.05,4.89-4.3,9.72-7.01,14.36-4.8,8.22-10.65,15.57-17.05,22.51-3.29,3.57-7.21,6.53-10.94,9.65-2.85,2.39-5.81,4.57-8.92,6.57-.9.58-1.71,1.28-2.62,1.84-1.08.65-.67,1.29-.39,2.27,1.37,4.69,3.19,9.23,4.09,14.07.68,3.66,1.91,7.22,2.66,10.87.36,1.74.1,3.53.7,5.34.54,1.64-.19,3.62.85,5.28-.57,4.44,1.05,8.75.79,13.19-.19,3.11-.04,6.25-.04,9.37,0,1.12.4,2.47-.08,3.33-1.05,1.9-.45,3.83-.68,5.73-.22,1.9-.52,3.79-.74,5.69-.28,2.52-.18,5.13-.84,7.54-.83,3.05-1.23,6.21-2.21,9.2-.84,2.55-1.18,5.2-2.15,7.73-1.24,3.24-2.02,6.66-3.09,9.97-.24.75-.65,1.2.16,1.98,3.43,3.28,6.6,6.84,10.14,10,4.35,3.89,4.28,12.26-.08,16.48-10.78,10.42-21.27,21.15-31.87,31.75-.53.53-1.01,1.12-1.6,1.58-1.64,1.29-3.74,1.59-5.49.99-1.38-.48-2.79-1.96-3.35-3.33-.46-1.14-.42-2.78.34-4.25.58-1.13,1.36-1.98,2.2-2.83,10.24-10.26,20.48-20.52,30.76-30.74,1.61-1.6,1.24-1.7.02-2.89-3.3-3.24-6.55-6.53-9.82-9.8-5.74-5.74-11.51-11.47-17.21-17.26-.73-.75-1.07-.69-1.63.04-.3.39-.7.71-1.05,1.07-26.6,26.6-53.2,53.2-79.8,79.8-.35.35-.71.7-1.06,1.06-1.22,1.28-1.24,1.31.05,2.6,9.01,9.02,18.04,18.01,27.01,27.07.87.88,1.22.58,1.9-.1,9.79-9.83,19.61-19.63,29.41-29.44.62-.62,1.21-1.27,1.86-1.85,1.97-1.76,3.86-1.97,6.19-.75,2.75,1.44,3.73,3.07,3.13,5.85-.26,1.23-.98,2.35-1.95,3.32-10.81,10.75-21.58,21.54-32.36,32.32-1.13,1.13-2.32,2.06-4.04,2.04-.2,0-.4.47-.59.72h-5.25c-.09-.21-.17-.61-.27-.61-2.27-.03-3.71-1.46-5.17-2.93-5.01-5.06-10.06-10.09-15.11-15.1-.4-.39-1.43-.84-1.45-.81-.86,1.36-2.3.48-3.41.93-2.72,1.11-5.68,1.38-8.53,2.01-2.23.5-4.47,1.09-6.81.77-1.21,1.27-2.78.54-4.19.75-1.52.23-3.04.68-4.56.71-5,.09-10,.15-14.99,0-5.02-.15-10.07.62-15.07-.66-1.7-.44-3.52-.07-5.34-.7-1.62-.56-3.54-.54-5.29-.73-4.15-.45-8.01-2.16-12.17-2.39-1.09-1.49-1.82-.44-2.61.35-3.44,3.45-6.89,6.89-10.34,10.34-1.06,1.06-2.07,2.18-3.2,3.16-1.08.94-2.18,1.92-3.26,2.82-1.11.94-2.73.79-3.48,2.08Zm134.92-223.58c.59-2.76-.58-5-2.16-6.98-2.96-3.71-8.75-4.63-12.71-2.33-1.13.65-2.02,1.71-3.17,2.33-1.66.89-3.32,1.71-5.35.54-1.97-1.14-3.51-2.18-3.64-4.87-.12-2.38,1.25-3.82,2.36-5.44,2.06-3.02,2.72-5.94,1.6-9.67-1.87-6.25-10.88-10.24-16.99-4.24-3.03,2.98-6.01,6-9.02,9.01-3.09,3.09-6.19,6.19-9.28,9.28,3.04,3.09,6.08,6.19,9.13,9.28.09.09.18.17.26.27,2.88,3.31,4.76,7.02,4.78,11.51,0,2,.04,4-.02,6-.02.68-.28,1.37-.5,2.03-1.55,4.77-3.69,9.06-8.13,11.98-2.81,1.85-5.51,3.66-9.01,3.62-.77,0-1.16.18-1.1,1.01.09,1.35-.38,3.1.29,3.96,1.23,1.58-.57,2.35-.39,3.68.59,4.29-1.64,7.91-4.22,10.91-6.09,7.11-14.79,10.2-24.2,7.06-1.61-.54-1.53-.49-2.26,1.21-.63,1.49-1.51,2.87-2.22,4.33-2.45,5.01-6.64,7.97-11.71,9.82-2.34.85-6.14.85-8.81.83-2.94-.02-5.66-.49-8.16-2.09-.88-.56-1.16-.17-1.37.82-.34,1.57-.73,3.23-1.53,4.6-3.16,5.4-7.56,8.22-14.44,10.16-4.74,1.34-8.79.67-12.91-.89-2.42-.92-2.52-1.05-4.11.53-4.43,4.4-8.82,8.85-13.28,13.23-.74.73-.86,1.08-.04,1.9,18.5,18.44,36.96,36.91,55.41,55.39,1.48,1.48,1.55,1.35,2.89,0,9.79-9.83,19.65-19.58,29.39-29.45,5.18-5.25,11.39-8.83,18.19-11.3,3.85-1.4,7.87-2.65,12.11-2.47.58.02,1.22-.05,1.75-.28,2.14-.93,4.56-.88,6.49-.25,2.61.86,5.12.48,7.63.47,2.65-.01,5.37.68,8.01-.51,1.5-.68,3.21-.2,4.91-.78,3.4-1.16,6.78-2.34,10.03-3.88,3.32-1.58,5.57-.78,7.29,2.55,1.53,2.95.73,5.49-2.28,7.19-.81.46-1.61.94-2.44,1.34-3.34,1.61-6.7,3.18-10.38,3.91-3.76.75-7.51,1.63-11.37,1.48-4.4-.18-8.78.24-13.21-.58-3-.55-6.26.35-9.41.6-.79,1.55-2.64.05-3.62,1.28-.35.45-1.91.04-.55,1.37,10.03,9.94,20.01,19.93,29.96,29.94,1.87,1.88,1.85,1.26,3.15-.07.26-.27.53-.53.79-.8,18.29-18.29,36.58-36.58,54.87-54.87.53-.53,1.05-1.07,1.59-1.59.55-.53.54-1.01,0-1.55-2.57-2.56-5.14-5.11-7.68-7.69-.67-.68-1.15-.71-1.83-.02-2.89,2.94-5.83,5.83-8.73,8.76-1.74,1.76-3.43,2.42-6.03,1.32-3.77-1.6-5.14-5.4-2.55-8.47.56-.67,1.23-1.24,1.85-1.86,12.55-12.55,25.11-25.08,37.62-37.66,1.34-1.34,2.37-2.99,3.5-4.54,1.27-1.74.59-3.78.76-5.68.22-2.45-.98-4.41-2.43-6.11-3.53-4.13-10.31-4.73-14.78-.65-2.48,2.27-6.27,3.05-8.52-.16-.63-.9-1.53-1.54-1.3-2.86.24-1.39-.37-2.86,1.05-4.1,1.13-.98,2.14-2.34,2.66-3.73,2.12-5.6.14-10.36-3.79-13.07-2.34-1.61-5.14-2.76-8.35-1.48-1.78.72-3.49,1.27-4.9,2.7-1.32,1.34-5.59,1.85-6.81,1.06-3.33-2.17-3.77-5.1-1.44-8.53,1.59-2.34,3.65-4.57,2.77-7.77Zm-72.33-91.42c-2.5,0-5.01-.13-7.5.04-2.42.17-4.84-.51-7.3.45-2.21.86-4.75-.04-7.11.93-1.24.51-2.76.2-4.19.73-1.38.51-3.02.46-4.55.74-4.39.82-8.67,2.11-12.9,3.36-6.18,1.83-12.23,4.23-17.98,7.24-3.49,1.83-7.01,3.6-10.53,5.35-3.14,1.56-6.07,3.53-8.98,5.42-4.8,3.12-9.47,6.62-13.58,10.6-3.39,3.28-7.37,5.92-10.23,9.85-2.29,3.14-5.53,5.56-7.88,8.76-2.04,2.78-4.15,5.5-6.16,8.32-3.14,4.4-5.65,9.17-8.53,13.7-2.91,4.57-4.83,9.56-7,14.38-2.12,4.7-3.58,9.78-4.96,14.83-1.2,4.37-2.3,8.79-3.36,13.19-.78,3.21-1.28,6.6-1.43,9.86-.17,3.67-1.13,7.25-.92,10.93.35,6.02-.78,12.09.75,18.06-.59,5.03,1.35,9.8,1.5,14.75,1.17,1.33.47,3.03.89,4.51,1.44,5.03,2.93,10.04,4.33,15.07.22.8.22,1.14.97.37,3.16-3.21,6.27-6.46,9.56-9.53,3.09-2.88,8.33-3.51,11.67-1.86,2.13,1.05,3.64,2.85,5.24,4.52.76.8,1.29.88,2.11.05,4.39-4.45,8.8-8.88,13.26-13.25,1.02-.99.72-1.54-.13-2.38-4.63-4.56-9.14-9.25-13.83-13.75-3.34-3.2-4.87-7.3-5.47-11.59-.65-4.65.15-9.2,2.7-13.45,2.74-4.56,5.97-8.25,11.28-9.68.56-.15,1.11-.34,1.66-.53,1.26-.44,1.38-.87,1.05-2.35-.42-1.84-.85-3.7-1.01-5.57-.18-2.04.23-4.04.63-6.08.93-4.79,3.28-8.84,6.88-11.71,3.73-2.97,8.01-5.45,13.24-5.08,2.03.14,2.38-.44,2.47-2.66.05-1.33-.11-2.78.36-3.97,1.78-4.58,3.61-8.97,8.02-12.08,3.54-2.49,7.32-3.55,11.3-4.48.82-.19,1.99.2,2.48-.25.46-.42.17-1.61.34-2.43.16-.79.65-1.54.7-2.32.33-5.24,3.08-9.39,6.83-12.48,3.89-3.21,8.5-5.66,13.98-5.06.49.05,1-.03,1.5.01,2.22.19,4.28-.17,6.14-1.49,1.01-.72,2.19-.79,3.43-.79,11.25.04,22.5.03,33.75.03.75,0,1.63-.26,2.23.04,3.02,1.5,6.48,2.23,8.83,4.96.81.94,1.78,1.75,2.63,2.67.61.65,1.01.55,1.85.16,3.56-1.68,7.28-2.88,11.3-2.56,1.03.08,2.06.72,3.06.68,3.45-.14,5.78,2.4,8.74,3.4,5.38,4.67,9.12,10.2,8.97,17.64-.03,1.61.65,1.59,1.76,1.52,2.79-.19,5.43.39,8.01,1.48,3.92,1.66,7.07,4.47,9.43,7.77,1.9,2.65,3.58,5.82,3.36,9.45-.07,1.12-.46,2.74.1,3.25.72.65,2.26.35,3.43.57.67.13,1.31.72,1.94.69,3.45-.2,6.14,1.86,8.65,3.53,2.87,1.91,5.33,4.63,6.88,7.92,1.42,3.03,2.43,6.19,2.2,9.56-.11,1.58.59,1.58,1.74,1.54,4.29-.13,8.06,1.23,11.63,3.65,1.57,1.07,2.82,2.36,4.07,3.66,3.23,3.36,5.16,7.34,5.11,12.12-.02,1.87.01,3.75-.01,5.62,0,.6-.03,1.23-.23,1.78-1.58,4.22-3.55,8.18-6.85,11.42-6.87,6.74-13.64,13.58-20.43,20.4-1.31,1.31-1.3,1.35-.08,2.6,1.75,1.78,3.53,3.54,5.3,5.31,2.77,2.77,2.81,2.81,5.51.09,4.36-4.38,11.04-3.57,14.83.03,2.45,2.32,4.78,4.76,7.17,7.15.53.53,1.05,1.07,1.59,1.59.54.51,1.06.56,1.45-.17.27-.51.66-1.02.73-1.57.78-5.71,3-11.08,3.94-16.79.65-3.94,1.09-7.94,2-11.86.59-2.55.11-5.26.69-7.95.62-2.87.25-5.97.11-8.97-.14-2.9.04-5.77-.54-8.72-.62-3.15-.33-6.53-.9-9.78-.39-2.25-.16-4.66-.87-6.78-.94-2.79-1.14-5.71-2.1-8.49-1.14-3.29-1.75-6.77-2.78-10.11-.29-.96.08-2.56-1.29-2.75-.87-.12-1.86.66-2.82.96-1.22.39-2.44.94-3.69,1-1.12.05-2.34-.31-3.4-.77-2.02-.87-4.15-1.67-5.88-2.97-4.63-3.48-10.12-5.63-14.43-9.64-1.53-1.42-3.58-2.3-5.16-3.78-1.68-1.58-3.56-2.94-5.22-4.54-3.15-3.03-6.3-6.08-9.27-9.29-2.45-2.66-4.68-5.52-6.91-8.38-2.68-3.43-5.06-7.11-7.11-10.93-3.23-6-6.28-12.12-8.28-18.68-1.33-4.36-2.86-8.66-3.36-13.24-.13-1.15-.91-2.16-.8-3.45.03-.38-.95-.94-1.56-1.24-.72-.36-1.6-.4-2.29-.8-2.94-1.7-6.18-2.64-9.35-3.68-5.76-1.9-11.49-4.03-17.62-4.55-3.13-1.54-6.65-1.66-9.96-2.09-4.33-.57-8.72-1.37-13.17-.94-2.11.2-4.25.03-6.37.03Zm70.16-5.72c.45,3.79-.81,8.51.75,13.08-.55,2.12.44,4.08.85,6.04.43,2.04.78,4.13,1.29,6.17,1.07,4.2,4.21,13.18,5.95,16.66,1.45,2.91,2.93,5.79,4.57,8.61,3.43,5.94,7.49,11.33,12.15,16.3,2.64,2.82,5.42,5.54,8.21,8.21,1.75,1.68,3.56,3.34,5.52,4.75,3.82,2.75,7.78,5.32,11.67,7.98,2.6,1.78,5.48,3.03,8.23,4.54,1.07.58,1.67.37,2.61-.25,2.13-1.41,4.42-2.58,6.62-3.89,6.13-3.67,11.97-7.78,17.25-12.6,3.13-2.86,6-6.01,9.04-8.97,2.79-2.71,5.18-5.77,7.39-8.94,2.94-4.22,5.76-8.52,7.96-13.18,1.52-3.24,3.19-6.43,4.45-9.77,1.27-3.35,2-6.89,3.15-10.31.68-2,.08-4.52,1-6.32,1.13-2.19-.38-4.69,1.32-6.58-.3-3.8.23-7.56.77-11.3.48-3.35-.83-6.5-.82-9.81,0-3.14-.09-6.37-.79-9.41-.79-3.43-1.29-6.92-2.19-10.32-.68-2.57-1.6-5.08-2.51-7.58-.1-.27-.43-.67-1.29-.57-3.3.39-6.65.32-9.98.42-.8-1.54-2.49-.27-3.66-1.2-.92-.73-2.44-.66-3.65-1.07-1.2-.41-2.34-.98-3.51-1.48-1.17-.5-2.34-.99-3.5-1.5-5.38-2.38-10.7-4.93-16.17-7.08-3.12-1.23-6.46-2.03-9.77-2.6-3.26-.57-6.6-.02-9.77.78-1.89.48-3.89.8-5.69,1.6-4.74,2.12-9.43,4.38-14.15,6.55-4.31,1.99-8.72,3.7-13.27,5.06-4.27,1.27-8.66,1.08-13.05.83-1.12-1.27-1.55.19-1.69.65-.46,1.45-.38,3.11-1,4.46-2.05,4.43-2.27,9.29-3.45,13.92-.82,3.25-.68,6.76-.84,10.15-.11,2.37-.02,4.75-.02,7.96Zm-106.15,280.23c-.56-.58-.96-1-1.38-1.42-7.24-7.24-14.49-14.49-21.73-21.73-19.88-19.88-39.75-39.75-59.63-59.63-1.22-1.22-1.24-1.22-2.38-.08-8.75,8.74-17.49,17.49-26.24,26.24-.35.35-.7.72-1.06,1.06-.54.51-.62,1-.06,1.55.63.61,1.24,1.23,1.86,1.85,7.95,7.95,15.9,15.9,23.85,23.85,18.9,18.9,37.81,37.81,56.7,56.72.57.57.84.9,1.63.1,4.8-4.91,9.69-9.75,14.55-14.6,4.24-4.24,8.48-8.48,12.72-12.72.33-.33.66-.67,1.17-1.18Zm36.02,14.99h11.99c.75,0,1.81.32,2.19-.06,1.33-1.3,2.85-.41,4.24-.69,1.39-.28,2.78-.55,4.18-.74,2.22-.3,4.42-.6,6.55-1.38.85-.31,1.79-.37,2.69-.55-.71-.71-1.39-1.44-2.12-2.11-4.32-3.96-5.07-6.48-4.61-12.09.13-1.66.73-2.97,1.88-4.1,2.04-2.02,4.03-4.09,6.1-6.08,1.4-1.35,1.45-1.45,0-2.89-10.53-10.48-21.02-21-31.53-31.5-1.92-1.92-2.35-1.93-4.41-.18-.47.4-.89.88-1.33,1.32-9.62,9.62-19.25,19.25-28.87,28.87-.44.44-.86.91-1.33,1.32-.76.66-.58,1.19.07,1.82,2.41,2.36,4.79,4.75,7.15,7.15.5.5,1.08,1.08,1.25,1.72,1,3.74,1.7,7.53-.73,11.03-.9,1.29-2.01,2.43-3.07,3.6-.67.74-1.41,1.42-2.11,2.13.89.18,1.8.31,2.68.54.55.14,1.06.47,1.61.62,2.74.77,5.61.68,8.39,1.41,2.77.72,5.75.72,8.65.82,3.49.13,6.99.03,10.49.03Zm-12.84-149.25c3.35,0,6.67-1.36,8.49-3.14,2.15-2.1,2.27-5.05,3.23-7.65-1.37-1.11-.45-2.95-1.44-4.29-.91-1.23-1.57-2.63-2.71-3.73-2.52-2.42-4.96-4.92-7.43-7.4-11.21-11.21-22.43-22.39-33.6-33.64-1.96-1.97-4.3-3.03-6.94-3.11-4.65-.15-7.9,2.33-10.11,6.23-1.52,2.68-1.2,8.79,2.32,12.27,13.86,13.67,27.59,27.47,41.31,41.27,2.17,2.18,4.79,2.91,6.87,3.18Zm-63.73-39.75c-3.14-.2-5.59.91-7.72,3.23-2.06,2.25-3.19,4.79-3.01,7.74.16,2.62,1.2,4.97,3.16,6.92,11.25,11.17,22.44,22.42,33.68,33.61.92.92,2.07,1.61,3.12,2.4,1.36,1.01,3.17.58,4.64,1.5.54.33,1.72-.44,2.62-.63,3.79-.76,6.21-2.91,7.53-6.61.73-2.04,1.03-4.01.42-5.97-.62-2-1.46-3.88-3.08-5.48-11.2-11.05-22.3-22.21-33.41-33.34-2.21-2.21-4.71-3.69-7.94-3.35Zm43.96-39.86c0-1.96.02-3.34,0-4.71-.02-.98-.79-1.59-1.64-1.16-2.5,1.28-4.49,3.04-5.92,5.57-1.05,1.87-1.92,3.83-1.34,5.76.8,2.65,1.82,5.26,3.94,7.37,11.98,11.86,23.91,23.79,35.77,35.76,2.4,2.42,6.46,3.98,10.79,3.32,3.81-.59,5.73-3.21,7.52-6.09.29-.47.33-1.13.36-1.71.06-1-.04-2,.03-3,.18-2.57-.96-4.66-2.6-6.41-3.08-3.27-6.37-6.35-9.48-9.59-.78-.81-1.54-1.04-2.6-1.02-3.5.06-6.99.05-10.49,0-2.26-.03-4.39-.77-6.57-1.31-3.3-.8-5.87-2.74-8.62-4.59-3.67-2.48-5.71-6.1-7.51-9.74-1.32-2.67-2.42-5.8-1.64-8.46Zm-31.49,97.94c.42-3.01-1.12-5.59-3.44-7.9-5.67-5.63-11.29-11.3-16.96-16.92-.67-.67-1.53-1.15-2.26-1.76-2.15-1.81-4.73-1.39-7.24-1.53-2.2-.12-4.09.81-5.47,2.13-4.53,4.32-5.22,10.72-.6,15.52,5.97,6.2,12.17,12.18,18.23,18.3,4.99,5.04,14.01,3.72,17.02-2.84.71-1.54.66-3.03.72-4.99Zm61.07-106.08c-5.36,0-10.72-.02-16.09,0-1.61,0-2.2.58-2.24,2.14-.05,1.87.17,3.76-.05,5.61-.44,3.72,1.55,6.62,3.77,8.87,2.7,2.74,6.46,4.19,10.46,4.36,2.49.1,4.99-.08,7.48.05,1.85.09,3.21-.35,4.54-1.79,3.04-3.3,6.31-6.39,9.48-9.56,1.5-1.5,3.02-2.97,4.47-4.52.23-.24.29-.98.09-1.23-1.96-2.47-4.36-4.04-7.7-3.96-4.74.11-9.48.03-14.21.03Z"/><path class="cls-1" d="m246.85,75.69c-.82-3.27.19-6.67.81-9.96.45-2.4,1.39-4.89,2.47-7.18,1.09-2.31,2.22-4.65,3.73-6.69,2-2.7,3.79-5.58,6.29-7.93,2.63-2.48,5.68-4.33,8.65-6.31,2.02-1.35,4.35-2.16,6.59-3.09,2.25-.93,4.64-1.76,6.97-2.11,3.96-.59,8-1.59,12.01-.81,1.53.3,3.03.56,4.58.68,1.41.11,2.82.38,4.18.75,1.45.39,2.88.88,4.25,1.49,3.18,1.43,6.38,2.87,9.18,4.97,2.04,1.53,3.93,3.28,5.8,5.02,5.23,4.87,8.44,10.98,10.94,17.58.57,1.5.5,2.91.35,4.3-.18,1.65-2.36,3.19-4.1,3.36-3.63.34-4.91-.34-6.62-3.73-.57-1.13-.74-2.47-1.37-3.55-2.69-4.61-5.34-9.1-9.9-12.43-3.89-2.84-8.04-4.72-12.48-6.17-2-.66-4.19-1.05-6.29-1.04-2.01.01-4.21-.9-6.06.67-2.59-.32-4.91.59-7.26,1.49-3.42,1.31-6.71,2.82-9.38,5.43-.78.76-1.72,1.34-2.49,2.1-.64.63-1.06,1.48-1.71,2.1-4.5,4.36-6.13,10.14-7.99,15.82-.05,6.98-.35,13.9,3.29,20.4,1.69,3.02,3.42,6.08,5.78,8.4,4.02,3.96,8.71,7.24,14.32,8.74,4.21,1.13,8.55,2.15,12.86,1.43,6.11-1.03,11.85-3.04,17.04-6.88,4.81-3.56,7.81-8.21,10.47-13.29.37-.72.6-1.54,1.1-2.16.76-.96,1.6-1.93,3.08-1.59.36.08.76.07,1.12,0,3.02-.51,4.34,1.46,5.55,3.7.57,1.06.52,2,.05,3.06-3.06,6.83-6.88,13.17-12.76,17.94-5.4,4.38-11.35,7.67-18.33,9.17-4.8,1.03-9.59,1.82-14.39,1.28-3.55-.4-7.07-1.35-10.54-2.5-6.57-2.17-12.19-5.72-17.01-10.49-5.45-5.38-9.19-11.9-11.34-19.27-1.19-4.07-1.92-8.22-1.41-12.69Z"/><path class="cls-1" d="m266.87,71.72c-.48-1.93.69-3.03,1.93-4.16,1.33-1.22,2.86-1.91,4.6-1.51,1.63.37,2.96,1.46,4.15,2.64,3.01,3,6.01,6.01,9.02,9.01.53.53,1,1.14,1.62,1.55.28.19.95.13,1.23-.08.69-.52,1.26-1.21,1.88-1.83,4.68-4.68,9.35-9.39,14.07-14.04.84-.83,1.82-1.57,2.87-2.11,1.91-.98,5.17.29,6.11,2.29.47,1,1.36,2.22,1.1,3.05-.47,1.5-.65,3.23-1.99,4.42-1.3,1.16-2.49,2.46-3.73,3.7-5.3,5.3-10.67,10.55-15.87,15.94-1.5,1.56-3.3,2.49-5.22,2.77-1.43.2-3.03-.58-4.34-1.47-.51-.34-.89-.87-1.34-1.31-4.24-4.24-8.51-8.46-12.71-12.74-1.09-1.11-2.07-2.36-2.89-3.68-.41-.66-.34-1.62-.49-2.44Z"/></svg>